<svg width="232" height="43" viewBox="0 0 232 43" fill="none" xmlns="http://www.w3.org/2000/svg">
<path d="M16.1172 42.3774C12.5226 42.3774 9.39681 41.6937 6.73991 40.3262C4.12209 38.9586 1.87545 36.966 0 34.3481L4.92307 28.7218C6.83759 31.4177 8.69351 33.2737 10.4908 34.2895C12.3272 35.2663 14.398 35.7547 16.7033 35.7547C18.0317 35.7547 19.2429 35.5594 20.337 35.1687C21.431 34.7779 22.2906 34.2309 22.9157 33.5276C23.5409 32.7853 23.8534 31.9257 23.8534 30.9489C23.8534 30.2847 23.7167 29.679 23.4432 29.132C23.2087 28.546 22.8376 28.038 22.3296 27.6082C21.8608 27.1394 21.2551 26.7096 20.5128 26.3189C19.8095 25.9281 18.9694 25.596 17.9926 25.3225C17.0549 25.0099 16.0195 24.756 14.8864 24.5606C12.6984 24.1308 10.8034 23.5643 9.20145 22.861C7.63857 22.1186 6.31012 21.22 5.21611 20.165C4.16116 19.071 3.36019 17.8598 2.81318 16.5313C2.30525 15.1638 2.05128 13.6205 2.05128 11.9013C2.05128 9.59606 2.69597 7.56432 3.98534 5.80608C5.31379 4.00877 7.07203 2.60218 9.26006 1.5863C11.4872 0.570435 13.9292 0.0625 16.586 0.0625C20.0244 0.0625 22.9352 0.687651 25.3186 1.93795C27.7411 3.18826 29.6361 4.96603 31.0036 7.27127L25.9633 12.1943C24.7912 10.397 23.4041 9.02951 21.8022 8.09179C20.2002 7.15406 18.4615 6.6852 16.586 6.6852C15.1795 6.6852 13.9487 6.90009 12.8937 7.32989C11.8779 7.7206 11.0769 8.28715 10.4908 9.02951C9.90474 9.73281 9.6117 10.5924 9.6117 11.6083C9.6117 12.3506 9.76799 13.0344 10.0806 13.6595C10.4322 14.2847 10.9401 14.8317 11.6044 15.3006C12.2686 15.7694 13.1086 16.1797 14.1245 16.5313C15.1404 16.883 16.3125 17.1956 17.641 17.4691C19.7899 17.9379 21.7045 18.524 23.3846 19.2273C25.1037 19.9306 26.5494 20.7902 27.7216 21.806C28.9328 22.7828 29.851 23.9159 30.4761 25.2053C31.1013 26.4556 31.4139 27.8622 31.4139 29.4251C31.4139 32.082 30.7887 34.3872 29.5384 36.3408C28.2881 38.2944 26.5103 39.7987 24.2051 40.8536C21.8998 41.8695 19.2039 42.3774 16.1172 42.3774Z" fill="#011D0D"/>
<path d="M39.9079 41.7914V0.765793H56.9628C59.3071 0.765793 61.417 1.33234 63.2925 2.46543C65.207 3.59851 66.7113 5.14185 67.8053 7.09545C68.9384 9.04905 69.5049 11.2371 69.5049 13.6595C69.5049 16.082 68.9384 18.2896 67.8053 20.2822C66.7113 22.2358 65.207 23.7987 63.2925 24.9709C61.417 26.143 59.3071 26.7291 56.9628 26.7291H47.4683V41.7914H39.9079ZM47.4683 19.7548H56.4353C57.4512 19.7548 58.3499 19.4813 59.1313 18.9343C59.9518 18.3872 60.5965 17.6644 61.0654 16.7658C61.5733 15.828 61.8273 14.8122 61.8273 13.7181C61.8273 12.5851 61.5733 11.5692 61.0654 10.6705C60.5965 9.77188 59.9518 9.06859 59.1313 8.56065C58.3499 8.05271 57.4512 7.79875 56.4353 7.79875H47.4683V19.7548Z" fill="#011D0D"/>
<path d="M77.5681 41.7914V0.765793H95.4435C97.866 0.765793 100.093 1.35187 102.125 2.52403C104.157 3.65712 105.758 5.22 106.931 7.21267C108.142 9.16627 108.747 11.3738 108.747 13.8354C108.747 16.1797 108.142 18.3286 106.931 20.2822C105.758 22.2358 104.157 23.7987 102.125 24.9709C100.132 26.143 97.905 26.7291 95.4435 26.7291H85.0113V41.7914H77.5681ZM101.422 41.7914L90.9893 23.2712L98.7841 21.806L110.389 41.85L101.422 41.7914ZM85.0113 20.0478H95.5021C96.5961 20.0478 97.5729 19.7938 98.4325 19.2859C99.2921 18.7389 99.9563 18.0161 100.425 17.1174C100.894 16.1797 101.128 15.1443 101.128 14.0112C101.128 12.7218 100.835 11.6083 100.249 10.6705C99.6633 9.73281 98.8427 8.99044 97.7878 8.44344C96.7329 7.89643 95.5216 7.62292 94.1541 7.62292H85.0113V20.0478Z" fill="#011D0D"/>
<path d="M117.26 41.7914V35.0514H123.941V7.50571H117.26V0.765793H138.241V7.50571H131.502V35.0514H138.241V41.7914H117.26Z" fill="#011D0D"/>
<path d="M148.024 41.7914V0.765793H154.822L178.734 32.8829L177.445 33.176C177.171 31.3787 176.937 29.4642 176.741 27.4324C176.585 25.4007 176.468 23.1931 176.39 20.8097C176.312 18.4263 176.273 15.828 176.273 13.0149V0.765793H183.774V41.7914H176.859L152.947 10.2017L154.353 9.79142C154.627 12.5655 154.842 14.8512 154.998 16.6485C155.154 18.4068 155.271 19.8524 155.35 20.9855C155.428 22.1186 155.467 23.0564 155.467 23.7987C155.506 24.5411 155.525 25.2444 155.525 25.9086V41.7914H148.024Z" fill="#011D0D"/>
<path d="M213.363 42.3774C210.315 42.3774 207.482 41.85 204.865 40.795C202.286 39.701 200.02 38.1967 198.066 36.2822C196.112 34.3677 194.608 32.1406 193.553 29.6009C192.498 27.0222 191.971 24.2285 191.971 21.22C191.971 18.2505 192.518 15.4959 193.612 12.9562C194.706 10.4166 196.21 8.18947 198.125 6.27494C200.078 4.36042 202.364 2.87568 204.982 1.82074C207.639 0.765793 210.491 0.238322 213.538 0.238322C215.648 0.238322 217.7 0.531362 219.692 1.11744C221.685 1.70352 223.482 2.52403 225.084 3.57898C226.725 4.63392 228.073 5.82561 229.128 7.15406L224.322 12.1357C222.681 10.5729 220.962 9.38116 219.165 8.56065C217.368 7.74014 215.473 7.32989 213.48 7.32989C211.526 7.32989 209.709 7.68153 208.029 8.38483C206.388 9.08812 204.923 10.0649 203.634 11.3152C202.383 12.5655 201.407 14.0307 200.703 15.7108C200.039 17.3909 199.707 19.2273 199.707 21.22C199.707 23.1736 200.059 25.0099 200.762 26.7291C201.504 28.4092 202.52 29.8939 203.81 31.1833C205.138 32.4727 206.642 33.4886 208.322 34.2309C210.042 34.9342 211.858 35.2859 213.773 35.2859C215.219 35.2859 216.567 35.0905 217.817 34.6998C219.067 34.27 220.181 33.6839 221.158 32.9416C222.134 32.1601 222.877 31.2615 223.385 30.2456C223.932 29.2297 224.205 28.1552 224.205 27.0222V25.7328L225.26 26.9049H213.128V20.1064H231.707C231.785 20.5362 231.844 21.0246 231.883 21.5716C231.922 22.0795 231.941 22.5679 231.941 23.0368C231.98 23.5057 232 23.9159 232 24.2676C232 26.9635 231.512 29.4251 230.535 31.6522C229.597 33.8402 228.288 35.7352 226.608 37.3372C224.928 38.9391 222.955 40.1894 220.689 41.0881C218.462 41.9476 216.02 42.3774 213.363 42.3774Z" fill="#011D0D"/>
</svg>
